<?xml version="1.0" encoding="UTF-8"?>
<svg width="400" height="100" viewBox="0 0 400 100" fill="none" xmlns="http://www.w3.org/2000/svg">
  <style>
    .logo-text { fill: #3B82F6; font-family: system-ui, -apple-system, sans-serif; font-weight: bold; letter-spacing: -0.02em; }
    .horse-head { fill: #3B82F6; }
  </style>
  <g transform="translate(20, 10) scale(1.2)">
    <path class="horse-head" d="M35 10C35 10 40 15 42 20C44 25 45 30 43 35C41 40 38 42 35 43C32 44 28 44 25 42C22 40 20 37 19 34C18 31 18 28 19 25C20 22 22 20 25 19C28 18 31 18 33 20C35 22 36 25 35 28C34 31 32 33 29 34C26 35 23 34 21 32C19 30 18 27 19 24C20 21 22 19 25 18C28 17 31 17 34 19L35 10Z"/>
  </g>
  <text x="120" y="60" class="logo-text" font-size="48">equinology</text>
</svg> 